<?xml version="1.0" encoding="UTF-8"?>
<svg id="Layer_2" xmlns="http://www.w3.org/2000/svg" viewBox="0 0 57.85 150.94">
  <g id="Layer_1-2" data-name="Layer_1">
    <path d="M36.14,58.17c5.18-9.27,1.58-18.4-.08-27.27-2.04-10.87-9.38-18.75-17.44-25.87-1.26-1.11-4.06-1.75-2.42-4,1.48-2.04,3.83-.65,5.25.57,5.15,4.45,10.06,9.12,13.51,15.16,5.56,9.73,8.07,20.22,8.16,31.33.04,4.81-.43,9.62-3.1,13.88-.85,1.37-.95,2.77-.35,4.29,7,17.75,4.36,34.09-7.09,49.21-2.3,3.04-4.32,6.3-6.39,9.51-.72,1.12-1.73,1.46-2.99,1.62-.87-1.59-2.09-3.26-.25-4.88,4.08-3.56,5.18-8.98,8.48-13.1,8.36-10.43,8.84-22.45,6.08-34.94-.36-1.63-.5-3.57-2.46-3.92-1.62-.29-2.44,1.33-3.55,2.33-6.07,5.5-13.11,8.26-21.29,6.09C4.98,76.8.13,69.66,0,64.11c-.1-4.62,4.29-9.84,8.99-12.63,10.43-6.21,17.64-.08,25.07,5.78.6.47.8,1.56,2.08.92M7.66,70.57c.78,1.61,2.15,2.41,3.81,2.92,6.17,1.9,17.22-2.45,20.38-8.01.91-1.61.39-2.83-.71-4.03-2.95-3.21-6.21-5.92-10.48-7.27-4.53-1.43-10.69.24-13.75,4.27-2.89,3.8-2.26,7.74.76,12.12Z"/>
    <path d="M46.66,136.37c-12.56,2.23-24.16,5.89-34.42,13.06-1.21.84-2.49,1.99-4.06,1.28-1.6-.72-1.85-2.53-1.58-3.92,2.23-11.44-.17-22.43-2.92-33.42-.34-1.35-.08-2.68,2.59-3.55,5.48,10.63,5.98,22.09,5.67,33.93,1.64.84,2.3-1.06,3.47-1.72,10.87-6.11,22.68-9.16,34.91-10.9,1.1-.16,2.04.04,2.84.54,1.78,1.11,5.5.77,4.53,4.11-.82,2.83-3.36.57-5.14.59-1.83.02-3.66,0-5.89.01Z"/>
  </g>
</svg>